PathFileType	4	(X/Y/Z)	9_coords_data.trc
DataRate	CameraRate	NumFrames	NumMarkers	Units	OrigDataRate	OrigDataStartFrame	OrigNumFrames
30.0	30.0	6	21	m	30.0	29	48
Frame#	Time	THUMB_TIP	THUMB_IP	THUMB_MCP	THUMB_CMC	INDEX_TIP	INDEX_DIP	INDEX_PIP	INDEX_MCP	MIDDLE_TIP	MIDDLE_DIP	MIDDLE_PIP	MIDDLE_MCP	RING_TIP	RING_DIP	RING_PIP	RING_MCP	PINKY_TIP	PINKY_DIP	PINKY_PIP	PINKY_MCP	WRIST
X1	Y1	Z1	X2	Y2	Z2	X3	Y3	Z3	X4	Y4	Z4	X5	Y5	Z5	X6	Y6	Z6	X7	Y7	Z7	X8	Y8	Z8	X9	Y9	Z9	X10	Y10	Z10	X11	Y11	Z11	X12	Y12	Z12	X13	Y13	Z13	X14	Y14	Z14	X15	Y15	Z15	X16	Y16	Z16	X17	Y17	Z17	X18	Y18	Z18	X19	Y19	Z19	X20	Y20	Z20	X21	Y21	Z21
28	0.9333333333333333	0.016153900146484376	-0.03714459991455078	1.03227001953125	-0.0012537000179290772	-0.03493389892578125	1.0525999755859374	-0.021988199234008788	-0.029431699752807617	1.07343994140625	-0.04188199996948242	-0.007733500003814698	1.090469970703125	0.0031369600296020507	0.014121999740600586	0.9717109985351563	-0.013378399848937989	0.004251039981842041	0.982385009765625	-0.029773799896240235	-0.00508046007156372	0.9951909790039063	-0.04340079879760742	-0.012153599739074707	1.0324100341796876	0.005033199787139893	0.048827800750732425	0.9728319702148438	-0.013608799934387208	0.037672000885009764	0.982760986328125	-0.03728300094604492	0.02481279945373535	0.995531982421875	-0.05586289978027344	0.00854839038848877	1.03068994140625	0.001505409955978393	0.06984760284423829	0.9980780029296875	-0.01924169921875	0.060945999145507815	1.0044199829101563	-0.04401959991455078	0.04849420166015625	1.0126900024414063	-0.06423780059814453	0.0290049991607666	1.0391199951171874	-0.022359899520874024	0.07811920166015625	1.0323900146484375	-0.03998080062866211	0.07436489868164063	1.0348800048828124	-0.057291999816894534	0.06662760162353516	1.040050048828125	-0.06920030212402344	0.04744950103759766	1.0568499755859375	-0.07767690277099609	-0.001006350040435791	1.114530029296875
29	0.9666666666666667	0.016489599227905275	-0.03428419876098633	1.03247998046875	-0.0010687799453735348	-0.03304169845581055	1.05281005859375	-0.022033599853515624	-0.02814970016479492	1.0738299560546876	-0.042063800811767575	-0.006875289916992188	1.0903199462890625	0.001956920027732849	0.012017200469970703	0.9719390258789062	-0.014775799751281739	0.00227908992767334	0.9823079833984375	-0.03135219955444336	-0.006883100032806396	0.994989990234375	-0.04456520080566406	-0.013094499588012695	1.0326300048828125	0.00400423002243042	0.04622880172729492	0.972666015625	-0.014965700149536134	0.03552640151977539	0.9820770263671875	-0.03895399856567383	0.023018899917602538	0.9947730102539063	-0.05696210098266601	0.007602660179138183	1.0306800537109375	0.001087790012359619	0.0673364028930664	0.9973629760742188	-0.019892099380493165	0.059010501861572265	1.0034000244140624	-0.044988399505615236	0.04709500122070313	1.0116500244140625	-0.064939697265625	0.02824769973754883	1.0388299560546874	-0.02221419906616211	0.07644039916992187	1.03125	-0.039969501495361326	0.07324970245361329	1.033800048828125	-0.05731769943237305	0.06592479705810547	1.03897998046875	-0.06910800170898437	0.04716180038452149	1.0561500244140625	-0.0777073974609375	-0.00046211799979209905	1.11468994140625
30	1.0	0.01590999984741211	-0.033099098205566405	1.03231005859375	-0.001636600017547607	-0.03252109909057617	1.0528499755859375	-0.022574899673461914	-0.027934200286865236	1.0739300537109375	-0.04250669860839844	-0.00674015998840332	1.0908900146484375	0.001063159942626953	0.010610899925231933	0.9722000122070312	-0.015848299980163575	0.0010763700008392329	0.9823369750976563	-0.03258560180664063	-0.00794428014755249	0.9948740234375	-0.045277099609375	-0.013679200172424317	1.0325999755859374	0.0034038898944854733	0.044225601196289065	0.9721240234375	-0.015829400062561037	0.033937099456787106	0.98156298828125	-0.039837200164794924	0.02197209930419922	0.9945009765625	-0.05752920150756836	0.007172510147094726	1.03072998046875	0.0013483200073242181	0.06573380279541016	0.9966539916992188	-0.019739099502563476	0.05779249954223633	1.0029000244140625	-0.044875099182128904	0.04621139907836914	1.0113300170898438	-0.0651178970336914	0.02790530014038086	1.0389100341796875	-0.02041629981994629	0.07516449737548828	1.0318199462890625	-0.03839149856567383	0.07236060333251954	1.0341300048828126	-0.05583729934692383	0.06545059967041016	1.039010009765625	-0.06861250305175781	0.04683710098266602	1.0561300048828124	-0.07772319793701171	-0.000386373996734619	1.1146099853515625
31	1.0333333333333334	0.01574839973449707	-0.03172039985656738	1.0321400146484374	-0.001787840008735656	-0.031694799423217776	1.0528900146484375	-0.02285510063171387	-0.0274242000579834	1.0739200439453125	-0.043160499572753905	-0.006707459926605225	1.0911400146484376	0.000434172987937927	0.010732199668884277	0.9725540161132813	-0.016506399154663086	0.001052270054817199	0.9824190063476562	-0.03333789825439453	-0.007980609893798828	0.9947949829101562	-0.04579669952392578	-0.013927399635314941	1.0324300537109374	0.0026034998893737795	0.04403519821166992	0.9719219970703125	-0.016539400100708007	0.033789798736572264	0.981333984375	-0.04056740188598633	0.02183970069885254	0.9943049926757812	-0.058104198455810545	0.006972439765930176	1.0306099853515625	0.000755867004394531	0.06538169860839843	0.996197998046875	-0.020293500900268553	0.057483299255371094	1.002530029296875	-0.04547019958496094	0.045958400726318356	1.0111099853515626	-0.06558139801025391	0.02773740005493164	1.0388499755859375	-0.020764699935913088	0.07457630157470703	1.0313399658203124	-0.03825019836425781	0.07191410064697265	1.0335400390625	-0.056148399353027345	0.06506580352783203	1.0387099609375	-0.0690177001953125	0.04674340057373047	1.055699951171875	-0.07793099975585938	-0.00034226500988006504	1.1148900146484375
32	1.0666666666666667	0.015682299613952635	-0.030198600769042967	1.0321500244140625	-0.001972319960594177	-0.030644399642944336	1.0528599853515626	-0.023065900802612303	-0.0267898006439209	1.0739200439453125	-0.04352510070800781	-0.006510270118713379	1.091280029296875	0.00019913400709629	0.010130200386047363	0.9726309814453125	-0.01683289909362793	0.000583015978336334	0.9823619995117188	-0.033749599456787106	-0.008388669967651367	0.9947039794921875	-0.046257400512695314	-0.014076700210571289	1.03227001953125	0.002181060075759887	0.04344269943237305	0.97177001953125	-0.017102800369262695	0.03333390045166015	0.9811640014648437	-0.041206199645996096	0.02152199935913086	0.9941389770507812	-0.058585399627685546	0.006810299873352051	1.030550048828125	0.0007449719905853271	0.06479039764404297	0.9962169799804688	-0.02039240074157715	0.05708560180664062	1.0024299926757811	-0.04566210174560547	0.045763599395751954	1.0109099731445312	-0.06592569732666016	0.027770999908447266	1.03868994140625	-0.020416900634765624	0.07422470092773438	1.031550048828125	-0.03814130020141602	0.07182959747314453	1.03381005859375	-0.05604090118408203	0.06513629913330078	1.03868994140625	-0.0689884033203125	0.0467661018371582	1.0556199951171874	-0.07809249877929687	-0.00013999000191688502	1.1144599609375
33	1.1	0.015450099945068359	-0.029147199630737305	1.0321099853515625	-0.002225100040435791	-0.02992329978942871	1.052739990234375	-0.023270000457763673	-0.02640049934387207	1.0738199462890625	-0.04352299880981445	-0.006527689933776856	1.091050048828125	3.0736299231648e-05	0.009704440116882325	0.9728040161132813	-0.017076000213623047	0.000228915005922317	0.9824340209960938	-0.03408000183105469	-0.008717100143432617	0.994697998046875	-0.04671289825439453	-0.014354499816894531	1.03218994140625	0.002117480039596557	0.04296200180053711	0.9721640014648437	-0.017322099685668946	0.03296080017089844	0.9812620239257812	-0.041641101837158204	0.02127359962463379	0.9940280151367188	-0.05887580108642578	0.006628029823303223	1.030530029296875	0.001107980012893676	0.06434449768066407	0.9970339965820313	-0.020176700592041016	0.05682109832763672	1.0029299926757813	-0.04572010040283203	0.0456593017578125	1.0110700073242187	-0.06615619659423828	0.027631099700927735	1.0386199951171875	-0.019792499542236327	0.07365329742431641	1.0324200439453124	-0.037609500885009764	0.07155460357666016	1.0343599853515626	-0.055632099151611325	0.06505609893798828	1.0391099853515624	-0.06927449798583984	0.046682701110839844	1.0555899658203125	-0.07844319915771485	-8.810809999704301e-05	1.114550048828125
